<svg width="174" height="76" viewBox="0 0 174 76" fill="none" xmlns="http://www.w3.org/2000/svg">
<path d="M162.68 0C162.941 5.56679 167.536 10 173.167 10C173.222 10 173.278 9.99597 173.333 9.99512V29.333C170.019 29.3332 167.333 32.0195 167.333 35.333C167.333 38.6466 170.019 41.3328 173.333 41.333V65.0039C173.278 65.0031 173.222 65 173.167 65C167.368 65 162.667 69.701 162.667 75.5C162.667 75.6676 162.672 75.8343 162.68 76H53.7461L50.667 72L47.5879 76H9.6543C9.66207 75.8343 9.66699 75.6676 9.66699 75.5C9.66699 69.9815 5.40943 65.4608 0 65.0361V41.333C3.31373 41.333 6 38.6467 6 35.333C5.99982 32.0194 3.31362 29.333 0 29.333V9.96289C5.24508 9.55104 9.4063 5.28952 9.6543 0H47.5879L50.667 4L53.7461 0H162.68Z" fill="#0F172A"/>
<path d="M51 6V22.6667" stroke="#F7F3E9" stroke-width="2" stroke-linecap="round" stroke-dasharray="4 4"/>
<path d="M51 53V69.6667" stroke="#F7F3E9" stroke-width="2" stroke-linecap="round" stroke-dasharray="4 4"/>
<path d="M20 63L20.3333 65L22 65.3333L20.3333 65.6667L20 67.6667L19.6667 65.6667L18 65.3333L19.6667 65L20 63Z" fill="#F3E8FF"/>
<path d="M35 56L35.3333 58L37 58.3333L35.3333 58.6667L35 60.6667L34.6667 58.6667L33 58.3333L34.6667 58L35 56Z" fill="#F3E8FF"/>
<path d="M9 48L9.33333 50L11 50.3333L9.33333 50.6667L9 52.6667L8.66667 50.6667L7 50.3333L8.66667 50L9 48Z" fill="#F3E8FF"/>
<path d="M9 19L9.33333 21L11 21.3333L9.33333 21.6667L9 23.6667L8.66667 21.6667L7 21.3333L8.66667 21L9 19Z" fill="#F3E8FF"/>
<path d="M41 15L41.3333 17L43 17.3333L41.3333 17.6667L41 19.6667L40.6667 17.6667L39 17.3333L40.6667 17L41 15Z" fill="#F3E8FF"/>
<path d="M24 9L24.3333 11L26 11.3333L24.3333 11.6667L24 13.6667L23.6667 11.6667L22 11.3333L23.6667 11L24 9Z" fill="#F3E8FF"/>
<path d="M146.5 7L147.583 12.4167L153 13.5L147.583 14.5833L146.5 20L145.417 14.5833L140 13.5L145.417 12.4167L146.5 7Z" fill="#F3E8FF"/>
<path d="M80.5 61L81.5833 66.4167L87 67.5L81.5833 68.5833L80.5 74L79.4167 68.5833L74 67.5L79.4167 66.4167L80.5 61Z" fill="#F3E8FF"/>
<path d="M20.1621 49C19.3301 49 18.7292 48.7804 18.3595 48.3413C17.9897 47.9022 17.8626 47.2782 17.9781 46.4693L21.0981 26.7093C21.2137 25.9929 21.4795 25.4613 21.8955 25.1147C22.3346 24.7449 22.9123 24.56 23.6288 24.56H35.8661C36.467 24.56 36.9292 24.6871 37.2528 24.9413C37.5763 25.1724 37.7381 25.5191 37.7381 25.9813C37.7381 26.6516 37.5417 27.1716 37.1488 27.5413C36.779 27.9111 36.2821 28.096 35.6581 28.096H25.1541L24.0795 34.8213H33.5088C34.1097 34.8213 34.5603 34.9484 34.8608 35.2027C35.1843 35.4338 35.3461 35.7804 35.3461 36.2427C35.3461 36.9129 35.1497 37.4329 34.7568 37.8027C34.387 38.1724 33.8901 38.3573 33.2661 38.3573H23.5248L22.3808 45.464H32.5381C33.139 45.464 33.6012 45.5911 33.9248 45.8453C34.2483 46.0764 34.4101 46.4231 34.4101 46.8853C34.4101 47.5556 34.2137 48.0756 33.8208 48.4453C33.451 48.8151 32.9541 49 32.3301 49H20.1621ZM44.5975 49.2773C43.9042 49.2773 43.3495 49.104 42.9335 48.7573C42.5406 48.4107 42.2517 47.9022 42.0669 47.232L38.6349 34.752C38.4731 34.1742 38.45 33.6658 38.5655 33.2267C38.6811 32.7644 38.9122 32.4062 39.2589 32.152C39.6055 31.8978 40.0446 31.7707 40.5762 31.7707C41.1771 31.7707 41.6393 31.9209 41.9629 32.2213C42.3095 32.4987 42.5637 33.0071 42.7255 33.7467L45.4642 45.1867H44.4242L51.2189 33.2613C51.5424 32.7067 51.8775 32.3253 52.2242 32.1173C52.5709 31.8862 53.0215 31.7707 53.5762 31.7707C54.1309 31.7707 54.5584 31.8978 54.8589 32.152C55.1824 32.3831 55.3557 32.7067 55.3789 33.1227C55.402 33.5156 55.2749 33.9547 54.9975 34.44L47.1282 47.648C46.7815 48.2258 46.4002 48.6418 45.9842 48.896C45.5913 49.1502 45.1291 49.2773 44.5975 49.2773ZM64.3082 49.3467C62.598 49.3467 61.1073 49.0347 59.8362 48.4107C58.5882 47.7636 57.6176 46.8622 56.9242 45.7067C56.2309 44.5511 55.8842 43.1991 55.8842 41.6507C55.8842 39.7556 56.2771 38.0684 57.0629 36.5893C57.8718 35.0871 58.9811 33.8969 60.3909 33.0187C61.8007 32.1404 63.4185 31.7013 65.2442 31.7013C66.654 31.7013 67.8327 31.944 68.7802 32.4293C69.7278 32.9147 70.4789 33.5733 71.0336 34.4053C71.5882 35.2142 71.958 36.1387 72.1429 37.1787C72.3278 38.2187 72.3625 39.2818 72.2469 40.368C72.2007 40.8533 72.0736 41.1653 71.8656 41.304C71.6576 41.4427 71.3687 41.512 70.9989 41.512H59.3509L59.6976 39.016H69.4042L68.8149 39.536C68.9536 38.6116 68.9189 37.7911 68.7109 37.0747C68.5029 36.3351 68.11 35.7458 67.5322 35.3067C66.9776 34.8676 66.2033 34.648 65.2096 34.648C64.1927 34.648 63.3376 34.8791 62.6442 35.3413C61.9509 35.8036 61.4078 36.4044 61.0149 37.144C60.622 37.8604 60.3562 38.6347 60.2176 39.4667L60.0442 40.5413C59.7669 42.2284 60.0442 43.5689 60.8762 44.5627C61.7082 45.5564 62.9793 46.0533 64.6896 46.0533C65.3829 46.0533 66.0993 45.984 66.8389 45.8453C67.5785 45.6836 68.2487 45.4293 68.8496 45.0827C69.2887 44.8284 69.67 44.7244 69.9936 44.7707C70.3402 44.7938 70.606 44.9209 70.7909 45.152C70.9989 45.36 71.126 45.6258 71.1722 45.9493C71.2185 46.2498 71.1607 46.5733 70.9989 46.92C70.8602 47.2436 70.606 47.5324 70.2362 47.7867C69.4273 48.3182 68.4682 48.7111 67.3589 48.9653C66.2496 49.2196 65.2327 49.3467 64.3082 49.3467ZM76.4413 49.2427C75.7711 49.2427 75.2742 49.0231 74.9506 48.584C74.6502 48.1218 74.5577 47.4978 74.6733 46.712L76.684 33.92C76.7995 33.2036 77.0653 32.672 77.4813 32.3253C77.9204 31.9556 78.4866 31.7707 79.18 31.7707C79.8271 31.7707 80.3008 31.9671 80.6013 32.36C80.9017 32.7529 80.9942 33.3422 80.8786 34.128L80.532 36.3467L80.3933 35.48C80.9711 34.2551 81.7915 33.3191 82.8546 32.672C83.9408 32.0249 85.212 31.7013 86.668 31.7013C87.916 31.7013 88.956 31.9556 89.788 32.464C90.6431 32.9724 91.244 33.7582 91.5906 34.8213C91.9604 35.8613 92.0182 37.2018 91.764 38.8427L90.4813 47.0933C90.3888 47.8098 90.1231 48.3529 89.684 48.7227C89.268 49.0693 88.7017 49.2427 87.9853 49.2427C87.3151 49.2427 86.8182 49.0231 86.4946 48.584C86.1711 48.1218 86.0671 47.4978 86.1826 46.712L87.4306 38.912C87.6386 37.6409 87.5346 36.6933 87.1186 36.0693C86.7257 35.4222 85.9977 35.0987 84.9346 35.0987C83.5711 35.0987 82.4733 35.5262 81.6413 36.3813C80.8324 37.2364 80.3124 38.4036 80.0813 39.8827L78.9373 47.0933C78.7293 48.5262 77.8973 49.2427 76.4413 49.2427ZM102.613 49.3467C101.111 49.3467 99.8746 49.0693 98.9039 48.5147C97.9333 47.9369 97.2515 47.1511 96.8586 46.1573C96.4888 45.1636 96.4079 44.008 96.6159 42.6907L97.7946 35.3067H96.2693C95.7146 35.3067 95.2755 35.1911 94.9519 34.96C94.6515 34.7058 94.5013 34.3591 94.5013 33.92C94.5013 33.3191 94.6977 32.8569 95.0906 32.5333C95.4835 32.2098 96.0151 32.048 96.6853 32.048H98.3146L98.8346 28.72C98.9502 28.0498 99.2044 27.5529 99.5973 27.2293C99.9902 26.8827 100.522 26.7093 101.192 26.7093C101.931 26.7093 102.463 26.9173 102.787 27.3333C103.11 27.7493 103.214 28.3387 103.099 29.1013L102.648 32.048H106.045C106.623 32.048 107.062 32.1636 107.363 32.3947C107.686 32.6027 107.848 32.9378 107.848 33.4C107.848 33.9547 107.663 34.4169 107.293 34.7867C106.947 35.1333 106.461 35.3067 105.837 35.3067H102.128L100.984 42.4133C100.799 43.6151 100.949 44.4818 101.435 45.0133C101.92 45.5218 102.602 45.776 103.48 45.776C103.896 45.776 104.219 45.7413 104.451 45.672C104.705 45.6027 104.947 45.568 105.179 45.568C105.502 45.568 105.733 45.6604 105.872 45.8453C106.034 46.0071 106.115 46.3191 106.115 46.7813C106.115 47.5671 105.987 48.1102 105.733 48.4107C105.479 48.7111 105.132 48.9307 104.693 49.0693C104.416 49.1618 104.081 49.2311 103.688 49.2773C103.295 49.3236 102.937 49.3467 102.613 49.3467ZM113.665 49.3467C112.625 49.3467 111.677 49.1156 110.822 48.6533C109.967 48.168 109.274 47.5324 108.742 46.7467C108.234 45.9609 107.979 45.0827 107.979 44.112C107.979 42.9102 108.314 41.9396 108.985 41.2C109.655 40.4373 110.695 39.8711 112.105 39.5013C113.514 39.1316 115.317 38.9467 117.513 38.9467H120.286L119.905 41.4427H117.721C116.357 41.4427 115.271 41.512 114.462 41.6507C113.653 41.7893 113.075 42.032 112.729 42.3787C112.382 42.7253 112.209 43.2107 112.209 43.8347C112.209 44.6436 112.474 45.2676 113.006 45.7067C113.561 46.1458 114.231 46.3653 115.017 46.3653C115.756 46.3653 116.426 46.2151 117.027 45.9147C117.628 45.5911 118.137 45.1404 118.553 44.5627C118.969 43.9618 119.234 43.2569 119.35 42.448L120.009 38.3227C120.194 37.2364 120.02 36.4044 119.489 35.8267C118.98 35.2489 118.079 34.96 116.785 34.96C116.022 34.96 115.282 35.0409 114.566 35.2027C113.85 35.3413 113.11 35.584 112.347 35.9307C111.908 36.1156 111.515 36.1733 111.169 36.104C110.822 36.0347 110.533 35.8844 110.302 35.6533C110.094 35.3991 109.978 35.1102 109.955 34.7867C109.932 34.44 110.025 34.1049 110.233 33.7813C110.464 33.4578 110.834 33.1804 111.342 32.9493C112.313 32.5102 113.318 32.1982 114.358 32.0133C115.421 31.8053 116.415 31.7013 117.339 31.7013C119.165 31.7013 120.598 32.0364 121.638 32.7067C122.678 33.3769 123.383 34.2898 123.753 35.4453C124.122 36.6009 124.192 37.9182 123.961 39.3973L122.747 47.128C122.655 47.8444 122.401 48.3876 121.985 48.7573C121.592 49.104 121.06 49.2773 120.39 49.2773C119.766 49.2773 119.292 49.0809 118.969 48.688C118.668 48.272 118.576 47.6711 118.691 46.8853L119.038 44.7013L119.281 45.3947C118.957 46.296 118.495 47.0471 117.894 47.648C117.316 48.2258 116.658 48.6533 115.918 48.9307C115.202 49.208 114.45 49.3467 113.665 49.3467ZM134.876 49.3467C133.374 49.3467 132.138 49.0693 131.167 48.5147C130.196 47.9369 129.515 47.1511 129.122 46.1573C128.752 45.1636 128.671 44.008 128.879 42.6907L130.058 35.3067H128.532C127.978 35.3067 127.539 35.1911 127.215 34.96C126.915 34.7058 126.764 34.3591 126.764 33.92C126.764 33.3191 126.961 32.8569 127.354 32.5333C127.747 32.2098 128.278 32.048 128.948 32.048H130.578L131.098 28.72C131.213 28.0498 131.467 27.5529 131.86 27.2293C132.253 26.8827 132.785 26.7093 133.455 26.7093C134.195 26.7093 134.726 26.9173 135.05 27.3333C135.373 27.7493 135.477 28.3387 135.362 29.1013L134.911 32.048H138.308C138.886 32.048 139.325 32.1636 139.626 32.3947C139.949 32.6027 140.111 32.9378 140.111 33.4C140.111 33.9547 139.926 34.4169 139.556 34.7867C139.21 35.1333 138.724 35.3067 138.1 35.3067H134.391L133.247 42.4133C133.062 43.6151 133.212 44.4818 133.698 45.0133C134.183 45.5218 134.865 45.776 135.743 45.776C136.159 45.776 136.483 45.7413 136.714 45.672C136.968 45.6027 137.211 45.568 137.442 45.568C137.765 45.568 137.996 45.6604 138.135 45.8453C138.297 46.0071 138.378 46.3191 138.378 46.7813C138.378 47.5671 138.251 48.1102 137.996 48.4107C137.742 48.7111 137.395 48.9307 136.956 49.0693C136.679 49.1618 136.344 49.2311 135.951 49.2773C135.558 49.3236 135.2 49.3467 134.876 49.3467ZM143.806 55.5173C143.252 55.5173 142.824 55.3902 142.524 55.136C142.223 54.8818 142.062 54.5467 142.038 54.1307C142.015 53.7378 142.142 53.3102 142.42 52.848L145.713 47.44L145.436 49.2427L141.449 34.752C141.287 34.1742 141.264 33.6658 141.38 33.2267C141.495 32.7644 141.726 32.4062 142.073 32.152C142.443 31.8978 142.894 31.7707 143.425 31.7707C144.026 31.7707 144.477 31.9209 144.777 32.2213C145.101 32.4987 145.343 33.0071 145.505 33.7467L148.278 45.2213H147.204L153.998 33.3307C154.322 32.776 154.657 32.3831 155.004 32.152C155.35 31.8978 155.801 31.7707 156.356 31.7707C156.91 31.7707 157.338 31.8978 157.638 32.152C157.962 32.4062 158.135 32.7413 158.158 33.1573C158.205 33.5502 158.089 33.9893 157.812 34.4747L146.164 53.9573C145.84 54.512 145.505 54.9049 145.158 55.136C144.812 55.3902 144.361 55.5173 143.806 55.5173Z" fill="#F7F3E9"/>
</svg>
