<svg width="45" height="43" viewBox="0 0 45 43" fill="none" xmlns="http://www.w3.org/2000/svg">
<path d="M22.3691 2.87012L25.0205 0H37.4121C37.6088 3.41302 40.4381 6.12012 43.9004 6.12012C44.206 6.12012 44.5064 6.09648 44.8008 6.05566V16C43.0335 16 41.6006 17.4329 41.6006 19.2002C41.6006 20.9675 43.0335 22.4004 44.8008 22.4004V35.1836C44.5064 35.1428 44.206 35.1201 43.9004 35.1201C40.3105 35.1201 37.4004 38.0303 37.4004 41.6201C37.4004 41.8293 37.4113 42.0361 37.4307 42.2402H24.3584L22.4004 40.1201L20.4424 42.2402H6.37012C6.38944 42.0361 6.40039 41.8293 6.40039 41.6201C6.40039 38.0635 3.54391 35.1753 0 35.1221V22.4004C1.76727 22.4004 3.20015 20.9675 3.2002 19.2002C3.2002 17.4329 1.7673 16 0 16V6.11719C3.41682 6.06584 6.19385 3.38022 6.38867 0H19.7178L22.3691 2.87012Z" fill="#F7F3E9"/>
<path d="M22.4004 29.1201V38.7201" stroke="#0F172A" stroke-width="1.28" stroke-linecap="round" stroke-dasharray="2.56 2.56"/>
<path d="M10.6804 33.1201L10.8724 34.4001L11.9604 34.5921L10.8724 34.7841L10.6804 36.0641L10.4884 34.7841L9.40039 34.5921L10.4884 34.4001L10.6804 33.1201Z" fill="#7C3AED"/>
<path d="M22.4004 4.12012V11.7201" stroke="#0F172A" stroke-width="1.13889" stroke-linecap="round" stroke-dasharray="2.28 2.28"/>
<path d="M34.9604 6.12012L35.2804 8.36012L37.5204 8.68012L35.2804 9.00012L34.9604 11.2401L34.6404 9.00012L32.4004 8.68012L34.6404 8.36012L34.9604 6.12012Z" fill="#7C3AED"/>
<path d="M17.4004 14.1201H27.6404V17.3201H20.6004V19.2401H26.3604V22.4401H20.6004V24.3601H27.6404V27.5601H17.4004V14.1201Z" fill="#0F172A"/>
</svg>
